<svg xmlns="http://www.w3.org/2000/svg" viewBox="0 0 900 180" role="img" aria-label="Original tissue state visual language"><defs><linearGradient id="ok"><stop stop-color="#d9f36a"/><stop offset="1" stop-color="#7fe8d2"/></linearGradient><filter id="g"><feGaussianBlur stdDeviation="3" result="x"/><feMerge><feMergeNode in="x"/><feMergeNode in="SourceGraphic"/></feMerge></filter></defs><g font-family="system-ui" text-anchor="middle"><g transform="translate(15 10)"><rect width="160" height="145" rx="12" fill="#0f1716" stroke="#33413b"/><circle cx="80" cy="68" r="38" fill="none" stroke="url(#ok)" stroke-width="8"/><circle cx="80" cy="68" r="12" fill="#d9f36a" filter="url(#g)"/><text x="80" y="125" fill="#dfe7e8" font-size="12">HEALTHY</text></g><g transform="translate(195 10)"><rect width="160" height="145" rx="12" fill="#17150f" stroke="#4b4430"/><circle cx="80" cy="68" r="38" fill="none" stroke="#f2b55d" stroke-width="8" stroke-dasharray="7 7"/><path d="M62 68h36" stroke="#f2b55d" stroke-width="6"/><text x="80" y="125" fill="#dfe7e8" font-size="12">STRESSED</text></g><g transform="translate(375 10)"><rect width="160" height="145" rx="12" fill="#1a1014" stroke="#51323a"/><circle cx="80" cy="68" r="39" fill="#27151b" stroke="#ff7079" stroke-width="6"/><path d="M58 48l44 40M102 48L58 90" stroke="#ff7079" stroke-width="7"/><text x="80" y="125" fill="#dfe7e8" font-size="12">DAMAGED</text></g><g transform="translate(555 10)"><rect width="160" height="145" rx="12" fill="#15111c" stroke="#443454"/><path d="M38 92h20l10-38 16 52 15-48 23 31h20" fill="none" stroke="#a47ad8" stroke-width="8"/><text x="80" y="125" fill="#dfe7e8" font-size="12">FIBROTIC</text></g><g transform="translate(735 10)"><rect width="150" height="145" rx="12" fill="#101822" stroke="#30475e"/><path d="M32 90c22-51 64-51 86 0" fill="none" stroke="#7fb7ff" stroke-width="8"/><path d="M45 71c18-23 43-23 61 0" fill="none" stroke="#7fe8d2" stroke-width="5"/><text x="75" y="125" fill="#dfe7e8" font-size="12">RECOVERING</text></g></g></svg>